<svg id="Layer_2" data-name="Layer 2" xmlns="http://www.w3.org/2000/svg" viewBox="0 0 1000 1000"><defs><style>.cls-1{fill:#a8b5a2;}.cls-2{fill:#e6d5c7;}</style></defs><path class="cls-1" d="M306.73,559A141.44,141.44,0,0,1,233,614.05c10.77-8.89,18.82-21.06,1.87-31.25-22.58-13.57-36.15-12.17-44.87-20.29-12.92-12,22.07-21.56,57.61-16.94C266.33,548,288.39,553.64,306.73,559Z"/><path class="cls-1" d="M193.14,407.55c-1.16-4-4-11.84-4.22-11.84.21,4.68.43,9.37.68,14.91-5.88-4-10.26-8-10.82-14.68-.73-8.62,4.9-13.79,10.44-19.08C197.66,386.78,199.32,400.6,193.14,407.55Z"/><path class="cls-1" d="M252.48,482.76c-14.28-2-22.43-10.25-21.64-21.92,4.18,3.3,12.22,9.27,12.33,9.15q-5.11-5.13-10.21-10.28c6.44-1.24,11.85-.16,15.9,4.75C253.36,469.9,254.19,476.07,252.48,482.76Z"/><path class="cls-1" d="M129.27,483.41c-3.81-13.61,6.25-25.79,18.12-23.68-3.34,3.72-9.33,11.22-9.15,11.43l11.89-9.92C152.52,472.12,145,480.21,129.27,483.41Z"/><path class="cls-1" d="M271.64,394.36c-.93,14.13-10.3,22.23-25.95,21.46,4.94-4.16,13.88-12.37,13.74-12.6l-11.65,7.31C247.26,400.28,259.11,392.14,271.64,394.36Z"/><path class="cls-1" d="M142.63,396.72c-3-2.72-10.07-8.44-10.24-8.3,2.47,3.51,4.93,7,7.48,10.68-11.49.45-19.35-8.89-19-22.36C134.65,374.91,145.75,385.81,142.63,396.72Z"/><path class="cls-1" d="M259.25,376.43c.1,13.08-6.69,21.71-18.43,23,2.67-4.07,5.11-7.77,7.53-11.47l-.54-.51c-3.35,3.58-6.71,7.15-10.23,10.9-1.13-5.48-.57-10.61,3.23-14.92C245.69,377.91,252.15,376.37,259.25,376.43Z"/><path class="cls-1" d="M133.83,415.53c-12,3.16-22.68-6.77-24-21,10.87-3,21.77,5.2,22.06,17-2.9-2.21-8.2-6.08-8.64-6.32Z"/><path class="cls-1" d="M198.65,384.89c.46-5.23.88-15.4.64-15.46L196.19,381c-6.7-7.27-4.21-19.3,5.33-26.18C210.64,364.12,209.37,379,198.65,384.89Z"/><path class="cls-1" d="M163.45,487.58c-9.39-7.91-11.84-19.05-5.73-27.35,1.82,4,3.53,7.84,5.25,11.63a99.54,99.54,0,0,0-1.9-10.56C171.46,464.57,172.62,477.35,163.45,487.58Z"/><path class="cls-1" d="M217.44,488.5c-4.84-5.38-7.15-11.64-5.68-18.74.9-4.31,4.16-6.93,8.65-8.05-1,3.74-2.33,10.86-2.08,10.94l4.73-10.09C229.64,470.3,226.46,481.31,217.44,488.5Z"/><path class="cls-1" d="M271.08,430.28c-7.76,12.11-15.89,16.65-25.36,13.86,3.81-2.93,10.62-8.75,10.51-8.95l-10.58,5.54c-.36-3.23,2.08-7.58,6-10.13C258.06,426.46,264.45,428.26,271.08,430.28Z"/><path class="cls-1" d="M185.33,376.55c-1.37-3.28-2.62-6.3-4.13-9.93.39,5.46.73,10.2,1.09,15.1-10.26-2.37-12.14-15.12-4.59-27A14.76,14.76,0,0,1,185.33,376.55Z"/><path class="cls-1" d="M108.87,435.07c3.46,2,6.91,4.06,10.49,6.16-9.27,4.14-19.29-.64-24.33-11.42,10.72-5.5,20.67-2,24.48,8.89C115.83,437.17,109,434.84,108.87,435.07Z"/><path class="cls-1" d="M208.65,450.27c1.61-3.62,4-10.07,3.87-10.19-2.59,3.63-5.18,7.28-7.68,10.81-4.18-8.52,1.9-18.54,14.81-22.24C223.23,437.06,218.83,446.23,208.65,450.27Z"/><path class="cls-1" d="M229.7,383.94c1.91-3,5.18-9.24,5-9.41-2.41,2.8-4.84,5.61-7.24,8.41-2.69-9.45,4.65-17.83,16-18.31C246.49,374,239.37,384.16,229.7,383.94Z"/><path class="cls-1" d="M176.4,449.73l-7.87-8.68c-.15.14,3.05,6.16,5,9.26-9.3-1-15-10-13.3-20.42C170.29,430.09,178.54,440,176.4,449.73Z"/><path class="cls-1" d="M145.53,372.9l5.54,10.83c-10.23-1-15.29-8-14.87-19.14,12.54.09,18.78,8.73,16.41,16.81C150.43,378.49,145.69,372.78,145.53,372.9Z"/><path class="cls-1" d="M272.83,469.32c-12.31,1.67-18.61-1.68-20-10.83,2.84,1,8.41,2.43,8.49,2.22-2.33-1.22-4.65-2.45-7-3.69C261.33,452.17,272,459.17,272.83,469.32Z"/><path class="cls-1" d="M167,401.11l3.37,8.68c-9.67-2.47-14.17-11.41-11.53-21.81,8,1.73,15.7,8.82,12.62,17.36A30.68,30.68,0,0,0,167,401.11Z"/><path class="cls-1" d="M109.29,473.91c.24-8.9,7.72-15.1,16.25-12.75a51.17,51.17,0,0,0-6.15,5.12l7.46-3.29C128.56,470.73,118.47,477,109.29,473.91Z"/><path class="cls-1" d="M139.23,444.54c-2.07-1.75-6.33-4.84-6.48-4.7l4.29,5.65c-6,2.31-12.25-4.25-13.75-14.76a16.28,16.28,0,0,1,11.2,2.91A11.24,11.24,0,0,1,139.23,444.54Z"/><path class="cls-1" d="M164.4,371.12l-.57.52,4.75,5.48c-8,3.29-14.27-4.13-12.92-15.15,7.08-.59,14.25,6.07,13.75,13.06Z"/><path class="cls-1" d="M209.22,409.22a33.82,33.82,0,0,0,1.74-6.14c-1.13,1.44-2.25,2.9-3.45,4.43-2.71-6.47,2.32-14.61,12-16.35C220.21,401.21,216.86,407.27,209.22,409.22Z"/><path class="cls-1" d="M216.74,374.78c.37-1.43.67-2.66,1.2-4.72l-3.83,5.24c-5.52-6.16-2.19-13.22,7.31-16.17C225,365,223.2,371.54,216.74,374.78Z"/><path class="cls-1" d="M191.15,431.94c-.37-1.36-.71-2.62-1.06-3.88a29.27,29.27,0,0,0-1,4.9c-5-7.22-4.47-13.59,1.19-19.62C195.52,417.21,195.87,427.44,191.15,431.94Z"/><path class="cls-1" d="M244.09,420.21c-1.24,10-5.53,14.74-13.44,14.5a49.35,49.35,0,0,0,3.87-5.68l-3.29,2.13C231.53,424.43,237.12,419.65,244.09,420.21Z"/><path class="cls-1" d="M217.21,377.92c0,7.69-4.39,13.08-12.3,14.54a31,31,0,0,0,3.42-5.31c-1.27,1.2-2.53,2.41-3.84,3.66C202.34,384.2,209.16,377.38,217.21,377.92Z"/><path class="cls-1" d="M145.48,429.46l3.59,5.11c-6.87.92-12-5.28-12-14.43,7.35.24,12.65,5.22,12.6,12A23.66,23.66,0,0,0,145.48,429.46Z"/><path class="cls-1" d="M109.34,460.12c-1.68,6.46-9.53,7.65-17.25,2.63,4.62-6.89,10.42-8.49,16.61-4.47a31.8,31.8,0,0,0-4.63,1.84Z"/><path class="cls-1" d="M105.62,418.49l3.87,3.39c-5.45,2.27-11.65-1.21-14.23-8a9.93,9.93,0,0,1,15,6.41A20.58,20.58,0,0,0,105.62,418.49Z"/><path class="cls-1" d="M155.41,400.7,153,398.87c.6,1.67,1,2.72,1.35,3.81-6.63.43-10.15-7.73-7.75-15.42C152.39,389.52,155.88,394.77,155.41,400.7Z"/><path class="cls-1" d="M283.06,414c-2.92,6.36-7.4,8.88-14.66,7.79l4.21-3.9a34.67,34.67,0,0,0-4.32,1.67C268.71,413.48,275.62,410.88,283.06,414Z"/><path class="cls-1" d="M263.91,418.59c-1.38,4.48-7.7,8.49-13.65,8.38a11.31,11.31,0,0,0,2-3.05l-3.5,2.38C248.64,419.26,254.91,416.11,263.91,418.59Z"/><path class="cls-1" d="M125.22,424l3.73,2.25c-6.9.93-10.24-1.11-13.85-7.61,6.13-3.79,14.55-.08,15.41,7.1C128.88,424.88,125.46,423.77,125.22,424Z"/><path class="cls-1" d="M181.14,419.37l-1.73-3.56c.15,1.91.24,2.92.31,4-5.18-1.82-6.5-7.21-3.77-15.79C182.18,408.38,184.06,413.87,181.14,419.37Z"/><path class="cls-1" d="M200.82,418.7c-.38-.74-.68-1.36-1.14-2.3-.33,1-.53,1.63-.79,2.41-3.28-5.56-2.21-10.74,3.31-16C205.14,408.52,204.65,413.68,200.82,418.7Z"/><path class="cls-1" d="M222.74,400.32c.44-1,.72-1.64,1.12-2.53l-1.69.76c-2-3,2.84-9.83,7.77-11.26C232.38,393.26,229.11,399.5,222.74,400.32Z"/><path class="cls-1" d="M288.24,468c-4.69,2.22-10.94.71-12.05-4.55l3.46.4L276.57,462C281.76,459.55,286.17,461.89,288.24,468Z"/><path class="cls-1" d="M285.68,428.62c-2.37,4.64-5.25,6.4-9.85,6,.32-.74.61-1.42,1.05-2.48a24.49,24.49,0,0,0-3.18.72c.89-1.59,1.48-3.52,2.75-4.69C278.39,426.38,282,426.77,285.68,428.62Z"/><path class="cls-1" d="M140.14,416.66c-4.21-2.91-5.34-7.37-2.27-13.86,1.39,2.39,3.09,4.66,4.06,7.21C142.83,412.37,143.08,415.07,140.14,416.66Z"/><path class="cls-1" d="M240,416.43,238.61,415c-1.12-5.42.39-8.58,4.64-10.92C245.83,408.92,244.52,413.66,240,416.43Z"/><path class="cls-1" d="M103.39,447c-1.38,3.9-5.12,5.53-9.94,4.33,1-4.62,3.54-6.91,7.89-7.21C103.81,443.91,104.08,445,103.39,447Z"/><path class="cls-1" d="M176.26,387.5c-5.82,1.42-8.94,0-12.12-5.3C168.92,380.28,173.53,382.23,176.26,387.5Z"/><path class="cls-1" d="M109.74,409.14c-4.7.39-6.56-1.65-6.5-6.83C107.29,402.57,109.07,404.41,109.74,409.14Z"/><path class="cls-1" d="M190.23,360.79c-3.24-2.52-3.36-5-.29-9.28C192.78,355.59,192.81,357.42,190.23,360.79Z"/><path class="cls-1" d="M277,403c0,4.75-1.35,6.2-5.65,6.12C271.07,405.25,273,403,277,403Z"/><path class="cls-1" d="M149.09,449.08c-5.81.79-7.2-.76-5.26-6.3Z"/><path class="cls-1" d="M231.47,448.83l5.7-6.39C239.08,447.76,237.38,449.71,231.47,448.83Z"/><path class="cls-1" d="M285.4,446.46c-6.89,7.29-16.21,9.21-22.86,4.48l9.28-4.23c-9.65.3-16.75,6.68-26.23,7.92l4.87,3.68-.61,1a37,37,0,0,0-18.47-3.42c-18,1.51-30.38,13.48-32,31.46-.73,8.1-.19,16.07,3.2,23.43a8.85,8.85,0,0,0,5.93,4.83c2.93.73,7.19,1.82,11.39,3,7.67,2.12,21.68,5.39,4.77,11.1-15,5.07-35.13,8.55-51.57,11.48-16.76,3-43.25,13.19-26,27.14a81.92,81.92,0,0,0,22.46,11.8c12.56,4.05,25.5,12.93,17.75,22.83-5,6.35-14.94,11.89-22.56,15.5a141.19,141.19,0,0,1-88.26-55c28.48-20,62.86-30,79.23-33.65,14.59-3.27,19.85-11.92,21.09-14.43.37-.74.75-1.46,1.13-2.19a39.78,39.78,0,0,0,4.19-12.84c1.68-11.7.83-23.11-7.31-32.44-10.55-12.09-24.2-13.79-39-10.31a40.19,40.19,0,0,1-5.15,1.22l5-4.45c-6.84-1.26-12.59-5.17-19.92-3.95l9.54,2.5c-6.32,5.05-13.84,4.19-19.76-2,4.2-4.25,9.51-6.1,14.87-4.13,10.55,3.87,21.42,4.8,32.42,5.58,2.63.18,5.24.69,7.56,1-3.75-8.87-13.36-10.69-20.28-15.88l.39-.74,12.68,4c-.75-5.54-1.45-10.69-2.15-15.83l.42-.17c.77,1.79,1.65,3.54,2.28,5.39,1.1,3.23,2.16,6.49,3,9.8a18.76,18.76,0,0,0,8.35,11.38c5.76,3.61,11.89,6.63,17.86,9.91,6.51-15.22-7.42-39.51-27.26-46.67l11.24,10.22c-10.84,2.5-21.72-6.66-22.63-18.79,7.3-.73,14,.48,19.81,5.34,9.22,7.74,17.72,16.12,24.05,26.48.33.54.7,1,1.18,1.77,1.8-2.75,3.5-5.32,5.18-7.91,6.5-10,15.06-18,24.86-24.74,3.95-2.71,10.35-3.81,15.71-2.82.83,11.11-10.7,20.8-24,19.6a41.91,41.91,0,0,1,12.29-11.59c-17,1.79-33.48,34.27-26.67,51.08,5.88-3.48,12-6.79,17.7-10.59A21.92,21.92,0,0,0,223.79,440c1-3.71,2-7.42,3.12-11.1a12.89,12.89,0,0,1,2.49-4.81c-.69,5.42-1.39,10.85-2.13,16.68l15.77-4.4.3.58c-2.22,1.26-4.34,2.85-6.72,3.76-6.69,2.6-12.6,6.17-16.44,12.34,8.25-.43,16.68-.61,25-1.38,6.26-.58,11.89-3.34,17.11-6.84C270.34,439.44,277.9,440,285.4,446.46Z"/><path class="cls-2" d="M189.1,338.44c-77.45.5-140.47,64.16-140.22,141.61a140.61,140.61,0,0,0,27.63,83.44c28.48-20,62.86-30,79.23-33.65,14.59-3.27,19.85-11.92,21.09-14.43.37-.74.75-1.46,1.13-2.19a39.78,39.78,0,0,0,4.19-12.84c1.68-11.7.83-23.11-7.31-32.44-10.55-12.09-24.2-13.79-39-10.31a40.19,40.19,0,0,1-5.15,1.22l5-4.45c-6.84-1.26-12.59-5.17-19.92-3.95l9.54,2.5c-6.32,5.05-13.84,4.19-19.76-2,4.2-4.25,9.51-6.1,14.87-4.13,10.55,3.87,21.42,4.8,32.42,5.58,2.63.18,5.24.69,7.56,1-3.75-8.87-13.36-10.69-20.28-15.88l.39-.74,12.68,4c-.75-5.54-1.45-10.69-2.15-15.83l.42-.17c.77,1.79,1.65,3.54,2.28,5.39,1.1,3.23,2.16,6.49,3,9.8a18.76,18.76,0,0,0,8.35,11.38c5.76,3.61,11.89,6.63,17.86,9.91,6.51-15.22-7.42-39.51-27.26-46.67l11.24,10.22c-10.84,2.5-21.72-6.66-22.63-18.79,7.3-.73,14,.48,19.81,5.34,9.22,7.74,17.72,16.12,24.05,26.48.33.54.7,1,1.18,1.77,1.8-2.75,3.5-5.32,5.18-7.91,6.5-10,15.06-18,24.86-24.74,3.95-2.71,10.35-3.81,15.71-2.82.83,11.11-10.7,20.8-24,19.6a41.91,41.91,0,0,1,12.29-11.59c-17,1.79-33.48,34.27-26.67,51.08,5.88-3.48,12-6.79,17.7-10.59A21.92,21.92,0,0,0,223.79,440c1-3.71,2-7.42,3.12-11.1a12.89,12.89,0,0,1,2.49-4.81c-.69,5.42-1.39,10.85-2.13,16.68l15.77-4.4.3.58c-2.22,1.26-4.34,2.85-6.72,3.76-6.69,2.6-12.6,6.17-16.44,12.34,8.25-.43,16.68-.61,25-1.38,6.26-.58,11.89-3.34,17.11-6.84,8-5.36,15.56-4.82,23.06,1.66-6.89,7.29-16.21,9.21-22.86,4.48l9.28-4.23c-9.65.3-16.75,6.68-26.23,7.92l4.87,3.68-.61,1a37,37,0,0,0-18.47-3.42c-18,1.51-30.38,13.48-32,31.46-.73,8.1-.19,16.07,3.2,23.43a8.85,8.85,0,0,0,5.93,4.83c2.93.73,7.19,1.82,11.39,3,7.67,2.12,21.68,5.39,4.77,11.1-15,5.07-35.13,8.55-51.57,11.48-16.76,3-43.25,13.19-26,27.14a81.92,81.92,0,0,0,22.46,11.8c12.56,4.05,25.5,12.93,17.75,22.83-5,6.35-14.94,11.89-22.56,15.5-4.24,2-7.76,3.43-9.31,4.07-4.31,1.78-49.56,19.11-33.7,30.91,14.65,10.91,75.72,7.1,75.72,7.1s-23.84-3.1-23.72-11c.13-8.23,35.57-20,49.09-28.28A92.51,92.51,0,0,0,233,614.05c10.77-8.89,18.82-21.06,1.87-31.25-22.58-13.57-36.15-12.17-44.87-20.29-12.92-12,22.07-21.56,57.61-16.94,18.69,2.43,40.75,8.07,59.09,13.41A141.17,141.17,0,0,0,189.1,338.44ZM143.83,442.78l5.26,6.3C143.28,449.87,141.89,448.32,143.83,442.78Zm16.36-12.89c10.1.2,18.35,10.14,16.21,19.84l-7.87-8.68c-.15.14,3.05,6.16,5,9.26C164.19,449.32,158.51,440.32,160.19,429.89Zm48.46,20.38c1.61-3.62,4-10.07,3.87-10.19-2.59,3.63-5.18,7.28-7.68,10.81-4.18-8.52,1.9-18.54,14.81-22.24C223.23,437.06,218.83,446.23,208.65,450.27Zm22.82-1.44,5.7-6.39C239.08,447.76,237.38,449.71,231.47,448.83ZM277,403c0,4.75-1.35,6.2-5.65,6.12C271.07,405.25,273,403,277,403Zm-5.39-8.62c-.93,14.13-10.3,22.23-25.95,21.46,4.94-4.16,13.88-12.37,13.74-12.6l-11.65,7.31C247.26,400.28,259.11,392.14,271.64,394.36ZM248.75,426.3c-.11-7,6.16-10.19,15.16-7.71-1.38,4.48-7.7,8.49-13.65,8.38a11.31,11.31,0,0,0,2-3.05Zm-47.23-71.48c9.12,9.3,7.85,24.19-2.87,30.07.46-5.23.88-15.4.64-15.46L196.19,381C189.49,373.73,192,361.7,201.52,354.82Zm-11.58-3.31c2.84,4.08,2.87,5.91.29,9.28C187,358.27,186.87,355.83,189.94,351.51ZM177.7,354.7a14.76,14.76,0,0,1,7.63,21.85c-1.37-3.28-2.62-6.3-4.13-9.93.39,5.46.73,10.2,1.09,15.1C172,379.35,170.15,366.6,177.7,354.7Zm-35.07,42c-3-2.72-10.07-8.44-10.24-8.3,2.47,3.51,4.93,7,7.48,10.68-11.49.45-19.35-8.89-19-22.36C134.65,374.91,145.75,385.81,142.63,396.72Zm-2.49,19.94c-4.21-2.91-5.34-7.37-2.27-13.86,1.39,2.39,3.09,4.66,4.06,7.21C142.83,412.37,143.08,415.07,140.14,416.66Zm-8.23-5.14c-2.9-2.21-8.2-6.08-8.64-6.32l10.56,10.33c-12,3.16-22.68-6.77-24-21C120.72,391.49,131.62,399.73,131.91,411.52Zm-22.17-2.38c-4.7.39-6.56-1.65-6.5-6.83C107.29,402.57,109.07,404.41,109.74,409.14Zm.55,11.14a20.58,20.58,0,0,0-4.67-1.79l3.87,3.39c-5.45,2.27-11.65-1.21-14.23-8A9.93,9.93,0,0,1,110.29,420.28Zm47.43,40c1.82,4,3.53,7.84,5.25,11.63a99.54,99.54,0,0,0-1.9-10.56c10.39,3.27,11.55,16.05,2.38,26.28C154.06,479.67,151.61,468.53,157.72,460.23Zm-10.33-.5c-3.34,3.72-9.33,11.22-9.15,11.43l11.89-9.92c2.39,10.88-5.1,19-20.86,22.17C125.46,469.8,135.52,457.62,147.39,459.73Zm-21.85,1.43a51.17,51.17,0,0,0-6.15,5.12l7.46-3.29c1.71,7.74-8.38,14-17.56,10.92C109.53,465,117,458.81,125.54,461.16Zm-16.84-2.88a31.8,31.8,0,0,0-4.63,1.84h5.27c-1.68,6.46-9.53,7.65-17.25,2.63C96.71,455.86,102.51,454.26,108.7,458.28Zm-15.25-7c1-4.62,3.54-6.91,7.89-7.21,2.47-.17,2.74.94,2,2.88C102,450.86,98.27,452.49,93.45,451.29Zm25.91-10.06c-9.27,4.14-19.29-.64-24.33-11.42,10.72-5.5,20.67-2,24.48,8.89-3.68-1.53-10.54-3.86-10.64-3.63C112.33,437.09,115.78,439.13,119.36,441.23Zm-4.26-22.56c6.13-3.79,14.55-.08,15.41,7.1-1.63-.89-5-2-5.29-1.74l3.73,2.25C122.05,427.21,118.71,425.17,115.1,418.67Zm24.13,25.87c-2.07-1.75-6.33-4.84-6.48-4.7l4.29,5.65c-6,2.31-12.25-4.25-13.75-14.76a16.28,16.28,0,0,1,11.2,2.91A11.24,11.24,0,0,1,139.23,444.54Zm10.43-12.41a23.66,23.66,0,0,0-4.18-2.67l3.59,5.11c-6.87.92-12-5.28-12-14.43C144.41,420.38,149.71,425.36,149.66,432.13ZM136.2,364.59c12.54.09,18.78,8.73,16.41,16.81-2.18-2.91-6.92-8.62-7.08-8.5l5.54,10.83C140.84,382.74,135.78,375.77,136.2,364.59Zm19.21,36.11L153,398.87c.6,1.67,1,2.72,1.35,3.81-6.63.43-10.15-7.73-7.75-15.42C152.39,389.52,155.88,394.77,155.41,400.7Zm.25-38.73c7.08-.59,14.25,6.07,13.75,13.06l-5-3.91-.57.52,4.75,5.48C160.57,380.41,154.31,373,155.66,362Zm15.84,43.37a30.68,30.68,0,0,0-4.46-4.23l3.37,8.68c-9.67-2.47-14.17-11.41-11.53-21.81C166.84,389.71,174.58,396.8,171.5,405.34Zm-7.36-23.14c4.78-1.92,9.39,0,12.12,5.3C170.44,388.92,167.32,387.51,164.14,382.2Zm17,37.17-1.73-3.56c.15,1.91.24,2.92.31,4-5.18-1.82-6.5-7.21-3.77-15.79C182.18,408.38,184.06,413.87,181.14,419.37Zm10,12.57c-.37-1.36-.71-2.62-1.06-3.88a29.27,29.27,0,0,0-1,4.9c-5-7.22-4.47-13.59,1.19-19.62C195.52,417.21,195.87,427.44,191.15,431.94Zm2-24.39c-1.16-4-4-11.84-4.22-11.84.21,4.68.43,9.37.68,14.91-5.88-4-10.26-8-10.82-14.68-.73-8.62,4.9-13.79,10.44-19.08C197.66,386.78,199.32,400.6,193.14,407.55Zm7.68,11.15c-.38-.74-.68-1.36-1.14-2.3-.33,1-.53,1.63-.79,2.41-3.28-5.56-2.21-10.74,3.31-16C205.14,408.52,204.65,413.68,200.82,418.7Zm4.09-26.24a31,31,0,0,0,3.42-5.31c-1.27,1.2-2.53,2.41-3.84,3.66-2.15-6.61,4.67-13.43,12.72-12.89C217.19,385.61,212.82,391,204.91,392.46Zm4.31,16.76a33.82,33.82,0,0,0,1.74-6.14c-1.13,1.44-2.25,2.9-3.45,4.43-2.71-6.47,2.32-14.61,12-16.35C220.21,401.21,216.86,407.27,209.22,409.22Zm7.52-34.44c.37-1.43.67-2.66,1.2-4.72l-3.83,5.24c-5.52-6.16-2.19-13.22,7.31-16.17C225,365,223.2,371.54,216.74,374.78Zm6,25.54c.44-1,.72-1.64,1.12-2.53l-1.69.76c-2-3,2.84-9.83,7.77-11.26C232.38,393.26,229.11,399.5,222.74,400.32Zm7-16.38c1.91-3,5.18-9.24,5-9.41-2.41,2.8-4.84,5.61-7.24,8.41-2.69-9.45,4.65-17.83,16-18.31C246.49,374,239.37,384.16,229.7,383.94Zm1,50.77a49.35,49.35,0,0,0,3.87-5.68l-3.29,2.13c.3-6.73,5.89-11.51,12.86-11C242.85,430.2,238.56,435,230.65,434.71ZM240,416.43,238.61,415c-1.12-5.42.39-8.58,4.64-10.92C245.83,408.92,244.52,413.66,240,416.43Zm.8-17c2.67-4.07,5.11-7.77,7.53-11.47l-.54-.51c-3.35,3.58-6.71,7.15-10.23,10.9-1.13-5.48-.57-10.61,3.23-14.92,4.88-5.54,11.34-7.08,18.44-7C259.35,389.51,252.56,398.14,240.82,399.45Zm4.9,44.69c3.81-2.93,10.62-8.75,10.51-8.95l-10.58,5.54c-.36-3.23,2.08-7.58,6-10.13,6.4-4.14,12.79-2.34,19.42-.32C263.32,442.39,255.19,446.93,245.72,444.14Zm22.68-22.36,4.21-3.9a34.67,34.67,0,0,0-4.32,1.67c.42-6.07,7.33-8.67,14.77-5.56C280.14,420.35,275.66,422.87,268.4,421.78Zm7.43,12.83c.32-.74.61-1.42,1.05-2.48a24.49,24.49,0,0,0-3.18.72c.89-1.59,1.48-3.52,2.75-4.69,1.94-1.78,5.54-1.39,9.23.46C283.31,433.26,280.43,435,275.83,434.61ZM217.44,488.5c-4.84-5.38-7.15-11.64-5.68-18.74.9-4.31,4.16-6.93,8.65-8.05-1,3.74-2.33,10.86-2.08,10.94l4.73-10.09C229.64,470.3,226.46,481.31,217.44,488.5Zm35-5.74c-14.28-2-22.43-10.25-21.64-21.92,4.18,3.3,12.22,9.27,12.33,9.15q-5.11-5.13-10.21-10.28c6.44-1.24,11.85-.16,15.9,4.75C253.36,469.9,254.19,476.07,252.48,482.76Zm.36-24.27c2.84,1,8.41,2.43,8.49,2.22-2.33-1.22-4.65-2.45-7-3.69,7-4.85,17.62,2.15,18.48,12.3C260.52,471,254.22,467.64,252.84,458.49Zm23.35,4.94,3.46.4L276.57,462c5.19-2.44,9.6-.1,11.67,6C283.55,470.2,277.3,468.69,276.19,463.43Z"/><path class="cls-1" d="M371,436.74q7.79,0,13.29.18c3.67.13,6.42.19,8.23.19a42.75,42.75,0,0,0,16.76-3,24,24,0,0,0,10.7-8.35,21.78,21.78,0,0,0,3.71-12.68,19.43,19.43,0,0,0-10.89-17.68q-5.93-3.35-16.32-4.46v-.24a35.15,35.15,0,0,0,12.12-5.38,21,21,0,0,0,6.62-7.67,19.78,19.78,0,0,0,2-8.6,17.05,17.05,0,0,0-6.87-14q-6.85-5.43-20.72-5.44-2.22,0-7.6.13t-11.32.12q-4.46,0-9-.12t-7.36-.25V352a20,20,0,0,1,6.19.93,4.64,4.64,0,0,1,2.84,3,22.18,22.18,0,0,1,.75,6.74V424a24.63,24.63,0,0,1-.68,6.68,4.34,4.34,0,0,1-2.79,3,24.91,24.91,0,0,1-6.31,1v2.47c1.9-.16,4.35-.27,7.36-.31S367.9,436.74,371,436.74Zm32.59-38.84q5,5.19,5,14.72,0,10.39-5,16t-16.14,5.62a16.28,16.28,0,0,1-5.63-.74,4.47,4.47,0,0,1-2.66-3,22,22,0,0,1-.74-6.55V392.71h8.66Q398.63,392.71,403.63,397.9Zm-23.56-43.78q1.6-2.12,7.05-2.11,8.28,0,11.93,4.64t3.65,13.79a35.11,35.11,0,0,1-1.36,10,14,14,0,0,1-5.07,7.42q-3.7,2.79-10.51,2.78h-7.3v-28Q378.46,356.22,380.07,354.12Z"/><path class="cls-1" d="M456.94,436.8c3.42,0,6.62-.06,9.58-.06h7.3c4.12,0,8.83,0,14.1.06s10,.15,14.23.31c-.33-3.3-.56-6.51-.68-9.65s-.19-5.52-.19-7.17c0-3.88.13-7,.37-9.4h-2.84a53.49,53.49,0,0,1-3.28,13.85,14.28,14.28,0,0,1-6.31,7.3q-4.14,2.22-11.19,2.22h-8a19.87,19.87,0,0,1-6-.68,4.24,4.24,0,0,1-2.78-2.78,19.93,19.93,0,0,1-.75-6.31V394.31h6.81c3.54,0,6.16.79,7.85,2.35a12.45,12.45,0,0,1,3.53,6.13,77.24,77.24,0,0,1,1.6,7.85h2.85q-.5-7-.62-10.76t-.12-6.8q0-3.09-.07-6.81t.44-10.76h-2.85q-.5,2.36-1.05,5.14A23.3,23.3,0,0,1,477,386a9.79,9.79,0,0,1-9.77,5.81h-6.81V362.15a19.81,19.81,0,0,1,.75-6.36,4.26,4.26,0,0,1,2.78-2.73,20.2,20.2,0,0,1,6-.68h8.53q6.32,0,9.84,1.92a12,12,0,0,1,5.31,6.49,50,50,0,0,1,2.66,12.5h2.85c-.08-.91-.17-2.06-.25-3.47s-.12-2.88-.12-4.45.06-3.81.18-6.74.35-6,.68-9.09q-5.69.24-12.92.31t-12.93.06h-7.3c-3,0-6.16,0-9.58-.06l-10.39-.13q-5.26-.06-10.08-.18V352a20,20,0,0,1,6.18.93,4.68,4.68,0,0,1,2.85,3,22.58,22.58,0,0,1,.74,6.74V424a24.63,24.63,0,0,1-.68,6.68,4.3,4.3,0,0,1-2.78,3,25.07,25.07,0,0,1-6.31,1v2.47q4.81-.12,10.08-.19Z"/><path class="cls-1" d="M518,359.06l24.61,45.44V424a24.63,24.63,0,0,1-.68,6.68,4.3,4.3,0,0,1-2.78,3,25,25,0,0,1-6.31,1v2.47c1.81-.16,4.25-.27,7.3-.31s6.26-.06,9.65-.06q4.69,0,9.27.06c3.05,0,5.57.15,7.55.31v-2.47a24.52,24.52,0,0,1-6.19-1,4.47,4.47,0,0,1-2.84-3,22.38,22.38,0,0,1-.74-6.68V399.48l17.81-35.35a43,43,0,0,1,5.62-8.72,10.64,10.64,0,0,1,5-3.4v-2.47l-4.08.25c-1.48.08-3.26.12-5.32.12q-3.33,0-7.05-.12l-7.54-.25V352c3.46.09,6.12.68,8,1.8s2.76,3.05,2.72,5.81-1.34,6.66-3.9,11.69l-13.7,27.29-19.94-38.3q-1.74-3.35-.93-5.13a4.49,4.49,0,0,1,3.22-2.42,22.35,22.35,0,0,1,5.5-.61v-2.6c-3,.16-6.18.27-9.65.31s-6.68.06-9.64.06q-3.46,0-6.44-.12l-5.69-.25v2.6a5.27,5.27,0,0,1,3,1.23C515,354.2,516.33,356.09,518,359.06Z"/><path class="cls-1" d="M611.49,433.52q9.15,5.33,21.39,5.32A39,39,0,0,0,654.1,433a39.73,39.73,0,0,0,14.41-16.21q5.19-10.38,5.19-24.24,0-14.22-5.07-24.18a36.09,36.09,0,0,0-14.23-15.27q-9.15-5.33-21.39-5.32a38.63,38.63,0,0,0-21.15,5.81,40.2,40.2,0,0,0-14.41,16.2q-5.26,10.4-5.26,24.25,0,14.1,5.07,24.12A36.07,36.07,0,0,0,611.49,433.52Zm-1.12-62.58q3.09-9.78,8.78-15.34A18.51,18.51,0,0,1,632.51,350a19.52,19.52,0,0,1,13.24,5.26q5.93,5.26,9.4,14.9t3.46,22.89a74,74,0,0,1-3.15,22.57q-3.16,9.84-8.79,15.4a18.26,18.26,0,0,1-13.29,5.56,19.5,19.5,0,0,1-13.24-5.25q-5.94-5.26-9.4-15a67.91,67.91,0,0,1-3.46-22.82A75.15,75.15,0,0,1,610.37,370.94Z"/><path class="cls-1" d="M711.55,434.64A21.31,21.31,0,0,1,704,433a6,6,0,0,1-3.21-4.15,34,34,0,0,1-.74-8.1V361.41l52.44,76.19h4.08V365.37a35.06,35.06,0,0,1,.68-7.85,6,6,0,0,1,2.78-4,14.48,14.48,0,0,1,6.31-1.49v-2.47c-1.32.08-3,.16-5.07.25s-4.12.12-6.18.12-4.46,0-6.93-.12-4.45-.17-5.94-.25V352a18.63,18.63,0,0,1,7.43,1.55,6.43,6.43,0,0,1,3.27,4.14,31.55,31.55,0,0,1,.81,8.17V414.1l-45.15-64.56-4.58.25q-2.6.12-5.31.12-3.11,0-6.19-.12c-2.06-.09-3.75-.17-5.07-.25V352a20,20,0,0,1,6.18.93,4.68,4.68,0,0,1,2.85,3,22.58,22.58,0,0,1,.74,6.74v58.63a32.48,32.48,0,0,1-.74,7.79,6.1,6.1,0,0,1-2.85,4,16.07,16.07,0,0,1-6.18,1.55v2.47c1.32-.16,3-.27,5.07-.31s4.12-.06,6.19-.06,4.43,0,6.86.06,4.43.15,6,.31Z"/><path class="cls-1" d="M795.53,436.74q2.73,0,6.06.06c2.23,0,4.39.1,6.5.19s3.77.12,5,.12q14.71,0,25-5.57a37.92,37.92,0,0,0,15.77-15.64q5.45-10.08,5.45-23.57,0-20.65-11.14-31.72t-34-11.07q-3.47,0-9,.12l-10,.25q-4.45.12-9-.06l-7.36-.31V352a20.76,20.76,0,0,1,6.25.93,4.46,4.46,0,0,1,2.84,3,24.48,24.48,0,0,1,.68,6.74V424a24.63,24.63,0,0,1-.68,6.68,4.3,4.3,0,0,1-2.78,3,25.07,25.07,0,0,1-6.31,1v2.47c1.89-.16,4.35-.27,7.36-.31S792.4,436.74,795.53,436.74ZM803,362.4c0-4.28.58-7.13,1.74-8.53s3.62-2.11,7.42-2.11q12,0,19,4.52t10.08,13.61q3.09,9.09,3.1,22.94,0,13.49-2.85,22.88T831.65,430q-6.93,4.89-19.42,4.88c-3.79,0-6.29-.7-7.48-2.1s-1.8-4.25-1.8-8.53Z"/><polygon class="cls-1" points="386.46 634.84 371.53 608.77 362.17 608.77 382.2 642.37 382.2 661.2 390.73 661.2 390.73 642.51 410.91 608.77 401.54 608.77 386.46 634.84"/><path class="cls-1" d="M470.46,616.82a26.07,26.07,0,0,0-8.11-6.13,23.65,23.65,0,0,0-10.55-2.29,24.18,24.18,0,0,0-10.31,2.18,26.69,26.69,0,0,0-8.23,5.91,27.51,27.51,0,0,0-5.52,8.49,25.78,25.78,0,0,0-2,10,26.52,26.52,0,0,0,1.87,9.79,27.24,27.24,0,0,0,5.33,8.56,25.69,25.69,0,0,0,8.18,6,24.24,24.24,0,0,0,10.44,2.21A24.66,24.66,0,0,0,462,659.42a26.71,26.71,0,0,0,15.58-24.29,26.77,26.77,0,0,0-1.83-9.75A27.8,27.8,0,0,0,470.46,616.82Zm-2.66,25.1a20.09,20.09,0,0,1-3.35,6.17,16.37,16.37,0,0,1-5.41,4.39,15.83,15.83,0,0,1-7.31,1.63,16.21,16.21,0,0,1-7.2-1.55,16.37,16.37,0,0,1-5.41-4.25,19.29,19.29,0,0,1-3.42-6.13,22.12,22.12,0,0,1,0-14.14,19.66,19.66,0,0,1,3.35-6.13,16.46,16.46,0,0,1,5.37-4.35,17.08,17.08,0,0,1,14.39-.08,16.73,16.73,0,0,1,5.45,4.25,19.63,19.63,0,0,1,3.5,6.09,21.08,21.08,0,0,1,1.22,7.16A21.66,21.66,0,0,1,467.8,641.92Z"/><path class="cls-1" d="M528.19,640.82h11.27v5.66a24.31,24.31,0,0,1-6.58,5.45,17.55,17.55,0,0,1-8.5,2.18,16.22,16.22,0,0,1-6.85-1.48,16.89,16.89,0,0,1-5.56-4.1,18.79,18.79,0,0,1-3.65-6.09A21,21,0,0,1,507,635a21.92,21.92,0,0,1,1.18-7.2,19.81,19.81,0,0,1,3.39-6.13,16.21,16.21,0,0,1,5.29-4.24,15.23,15.23,0,0,1,7-1.55,17.34,17.34,0,0,1,8.53,2.14,14.91,14.91,0,0,1,6.09,6.42l6.55-4.57a20.41,20.41,0,0,0-7.95-8.31A25.27,25.27,0,0,0,524,608.4a24.39,24.39,0,0,0-10.16,2.11,25.48,25.48,0,0,0-8.15,5.75,27.16,27.16,0,0,0-5.41,8.39,26.42,26.42,0,0,0-1.94,10.11A27.29,27.29,0,0,0,500.28,645a27.6,27.6,0,0,0,5.41,8.56,25.37,25.37,0,0,0,8.11,5.87,23.48,23.48,0,0,0,10,2.14,21.49,21.49,0,0,0,15.68-6.83v6.46h7.24V634.61H528.19Z"/><path class="cls-1" d="M587.29,608.77,566.2,661.19h9l5.31-14.25h21.62l5.29,14.25h9l-21-52.42Zm-4.52,32.05,8.56-23,8.51,23Z"/><path class="cls-1" d="M425,475.46l-11.63.24q-6.43.14-12.74.13H377.47q-6.44,0-12.74-.13l-11.63-.24q.5,5.19.68,10.08c.13,3.25.19,5.75.19,7.48,0,1.9,0,3.71-.06,5.44s-.15,3.22-.31,4.45h2.84a70.3,70.3,0,0,1,3.22-14.59,14.28,14.28,0,0,1,5.94-7.67q3.94-2.36,10.88-2.35h5.44v70.5a21,21,0,0,1-1,7.42,5.38,5.38,0,0,1-3.71,3.28,35.64,35.64,0,0,1-8,1V563c2.15-.17,5-.27,8.48-.31s7.23-.06,11.19-.06q5.68,0,11.13.06t8.91.31v-2.48a36.62,36.62,0,0,1-8.1-1,5.25,5.25,0,0,1-3.72-3.28,22.6,22.6,0,0,1-.92-7.42V478.3h5.32q7.17,0,11,2.35a14.78,14.78,0,0,1,5.88,7.67,67.32,67.32,0,0,1,3.28,14.59h2.84c-.08-1.23-.16-2.72-.25-4.45s-.12-3.54-.12-5.44c0-1.73.06-4.23.19-7.48S424.64,478.92,425,475.46Z"/><path class="cls-1" d="M511.79,562.72q4.45.06,7.18.31v-2.48a23.64,23.64,0,0,1-6.19-1,4.42,4.42,0,0,1-2.84-3,22.33,22.33,0,0,1-.74-6.68V488.57a22.25,22.25,0,0,1,.74-6.74,4.59,4.59,0,0,1,2.84-3,19.75,19.75,0,0,1,6.19-.93v-2.47q-2.73.12-7.18.24c-3,.09-6.18.13-9.64.13-3,0-6.13,0-9.22-.13s-5.67-.16-7.73-.24v2.47a19.8,19.8,0,0,1,6.19.93,4.59,4.59,0,0,1,2.84,3,22.58,22.58,0,0,1,.74,6.74v29.19H457.25V488.57a22.58,22.58,0,0,1,.74-6.74,4.59,4.59,0,0,1,2.84-3,19.8,19.8,0,0,1,6.19-.93v-2.47q-3,.12-7.48.24c-3,.09-6.09.13-9.22.13q-5.19,0-9.71-.13t-7.36-.24v2.47a19.8,19.8,0,0,1,6.19.93,4.59,4.59,0,0,1,2.84,3,22.25,22.25,0,0,1,.74,6.74v61.34a24.18,24.18,0,0,1-.68,6.68,4.26,4.26,0,0,1-2.78,3,24.1,24.1,0,0,1-6.31,1V563q2.85-.25,7.36-.31t9.71-.06c3.13,0,6.21,0,9.22.06s5.5.14,7.48.31v-2.48a23.71,23.71,0,0,1-6.19-1,4.42,4.42,0,0,1-2.84-3,22.67,22.67,0,0,1-.74-6.68V520.23H495v29.68a24.58,24.58,0,0,1-.68,6.68,4.26,4.26,0,0,1-2.78,3,24.1,24.1,0,0,1-6.31,1V563q3.09-.25,7.73-.31c3.09,0,6.17-.06,9.22-.06C505.61,562.66,508.83,562.68,511.79,562.72Z"/><path class="cls-1" d="M594.29,563c-.33-3.3-.55-6.52-.68-9.65s-.18-5.52-.18-7.17c0-3.88.12-7,.37-9.41H591a53.53,53.53,0,0,1-3.27,13.86,14.33,14.33,0,0,1-6.31,7.3q-4.15,2.22-11.2,2.22h-8a19.8,19.8,0,0,1-6-.68,4.26,4.26,0,0,1-2.79-2.78,20.32,20.32,0,0,1-.74-6.31V520.23h6.8q5.33,0,7.86,2.35a12.45,12.45,0,0,1,3.52,6.12,75.32,75.32,0,0,1,1.61,7.86h2.84c-.32-4.7-.53-8.29-.61-10.76s-.13-4.74-.13-6.81,0-4.33-.06-6.8.1-6.06.43-10.76H572q-.49,2.35-1,5.13a22.56,22.56,0,0,1-1.8,5.38,10.56,10.56,0,0,1-3.52,4.21,10.73,10.73,0,0,1-6.25,1.61h-6.8V488.07a20.24,20.24,0,0,1,.74-6.37,4.26,4.26,0,0,1,2.79-2.72,20.12,20.12,0,0,1,6-.68h8.54q6.3,0,9.83,1.92a12,12,0,0,1,5.32,6.49,50.79,50.79,0,0,1,2.66,12.49h2.84c-.08-.9-.16-2.06-.24-3.46s-.13-2.89-.13-4.45.07-3.82.19-6.74.35-6,.68-9.09q-5.69.24-12.93.3t-12.92.07h-7.3q-4.45,0-9.58-.07l-10.39-.12q-5.26-.06-10.08-.18v2.47a19.68,19.68,0,0,1,6.18.93,4.59,4.59,0,0,1,2.84,3,22.18,22.18,0,0,1,.75,6.74v61.34a24.58,24.58,0,0,1-.68,6.68,4.3,4.3,0,0,1-2.79,3,24,24,0,0,1-6.3,1V563c3.21-.08,6.57-.15,10.08-.19l10.39-.12q5.13-.06,9.58-.06H566q6.18,0,14.1.06C585.34,562.76,590.09,562.86,594.29,563Z"/><path class="cls-1" d="M686.55,521.34q-5.94-3.33-16.33-4.45v-.25a35.11,35.11,0,0,0,12.13-5.38,20.79,20.79,0,0,0,6.61-7.67,19.71,19.71,0,0,0,2-8.59,17,17,0,0,0-6.86-14q-6.87-5.44-20.72-5.44c-1.48,0-4,0-7.6.12s-7.36.13-11.32.13q-4.46,0-9-.13t-7.36-.24v2.47a19.8,19.8,0,0,1,6.19.93,4.59,4.59,0,0,1,2.84,3,22.58,22.58,0,0,1,.74,6.74v61.34a24.58,24.58,0,0,1-.68,6.68,4.26,4.26,0,0,1-2.78,3,24.1,24.1,0,0,1-6.31,1V563q2.85-.25,7.36-.31c3,0,6.08-.07,9.21-.07q7.8,0,13.3.19c3.67.12,6.41.19,8.23.19a42.75,42.75,0,0,0,16.76-3,24,24,0,0,0,10.7-8.35A21.8,21.8,0,0,0,697.44,539a19.5,19.5,0,0,0-10.89-17.69ZM653.77,480c1.07-1.4,3.43-2.1,7.05-2.1q8.29,0,11.94,4.64t3.65,13.79a35.16,35.16,0,0,1-1.36,10,14,14,0,0,1-5.07,7.42q-3.72,2.78-10.52,2.78h-7.29V488.57Q652.17,482.14,653.77,480Zm23.57,74.52q-5,5.64-16.14,5.63a16.49,16.49,0,0,1-5.63-.74,4.47,4.47,0,0,1-2.66-3,21.79,21.79,0,0,1-.74-6.56V518.62h8.65q11.5,0,16.52,5.2t5,14.72Q682.35,548.92,677.34,554.55Z"/><path class="cls-1" d="M771.28,546.2q0-5.81.37-9.4H768.8a53.53,53.53,0,0,1-3.27,13.86,14.33,14.33,0,0,1-6.31,7.3q-4.15,2.22-11.2,2.22h-8a19.83,19.83,0,0,1-6-.68,4.28,4.28,0,0,1-2.79-2.78,20.32,20.32,0,0,1-.74-6.31V520.23h6.8q5.32,0,7.86,2.35a12.45,12.45,0,0,1,3.52,6.12,75.32,75.32,0,0,1,1.61,7.86h2.85q-.5-7-.62-10.76c-.09-2.48-.13-4.74-.13-6.81s0-4.33-.06-6.8.1-6.06.43-10.76h-2.84q-.5,2.35-1,5.13a22.56,22.56,0,0,1-1.8,5.38,10.48,10.48,0,0,1-3.52,4.21,10.73,10.73,0,0,1-6.25,1.61h-6.8V488.07a20.24,20.24,0,0,1,.74-6.37A4.28,4.28,0,0,1,734,479a20.15,20.15,0,0,1,6-.68h8.53q6.3,0,9.83,1.92a12,12,0,0,1,5.32,6.49,50.33,50.33,0,0,1,2.66,12.49h2.85c-.09-.9-.17-2.06-.25-3.46s-.13-2.89-.13-4.45.07-3.82.19-6.74.35-6,.68-9.09q-5.68.24-12.93.3t-12.92.07h-7.3q-4.46,0-9.58-.07l-10.39-.12q-5.26-.06-10.08-.18v2.47a19.68,19.68,0,0,1,6.18.93,4.59,4.59,0,0,1,2.84,3,22.18,22.18,0,0,1,.75,6.74v61.34a24.58,24.58,0,0,1-.68,6.68,4.3,4.3,0,0,1-2.79,3,24,24,0,0,1-6.3,1V563q4.81-.13,10.08-.19l10.39-.12c3.42,0,6.61-.07,9.58-.07h7.3q6.18,0,14.1.07t14.22.31c-.33-3.3-.55-6.52-.68-9.65S771.28,547.86,771.28,546.2Z"/><path class="cls-1" d="M850.56,475.83c-2.15,0-4.45,0-6.93-.13s-4.45-.16-5.93-.24v2.47a18.77,18.77,0,0,1,7.42,1.54,6.42,6.42,0,0,1,3.27,4.15,31.52,31.52,0,0,1,.81,8.16V540l-45.15-64.56c-1.32.08-2.84.16-4.57.24s-3.51.13-5.32.13c-2.06,0-4.13,0-6.19-.13s-3.75-.16-5.07-.24v2.47a19.8,19.8,0,0,1,6.19.93,4.59,4.59,0,0,1,2.84,3,22.25,22.25,0,0,1,.74,6.74v58.62a32.06,32.06,0,0,1-.74,7.8,6.1,6.1,0,0,1-2.84,4,16.2,16.2,0,0,1-6.19,1.54V563a48.63,48.63,0,0,1,5.07-.31c2.06,0,4.13-.07,6.19-.07s4.43,0,6.86.07,4.43.14,6,.31v-2.48a21,21,0,0,1-7.54-1.61,6,6,0,0,1-3.22-4.14,34.69,34.69,0,0,1-.74-8.1V487.33L848,563.52H852V491.29a35.22,35.22,0,0,1,.68-7.86,6.1,6.1,0,0,1,2.79-4,14.55,14.55,0,0,1,6.3-1.48v-2.47c-1.31.08-3,.16-5.07.24S852.62,475.83,850.56,475.83Z"/><path class="cls-1" d="M940,486.53q-11.15-11.07-34-11.07-3.47,0-9,.12c-3.67.08-7,.17-10,.25s-6,.06-9-.07l-7.36-.3v2.47a20.45,20.45,0,0,1,6.25.93,4.42,4.42,0,0,1,2.84,3,24.48,24.48,0,0,1,.68,6.74v61.34a24.58,24.58,0,0,1-.68,6.68,4.26,4.26,0,0,1-2.78,3,24.1,24.1,0,0,1-6.31,1V563q2.85-.25,7.36-.31c3,0,6.08-.07,9.21-.07,1.82,0,3.84,0,6.07.07s4.39.1,6.49.18,3.77.13,5,.13q14.71,0,25-5.57a37.92,37.92,0,0,0,15.76-15.65q5.45-10.08,5.45-23.56Q951.12,497.6,940,486.53Zm-6.81,55.1q-2.83,9.4-9.77,14.28T904,560.8c-3.79,0-6.29-.7-7.48-2.1s-1.79-4.25-1.79-8.54V488.32c0-4.29.57-7.13,1.73-8.54s3.62-2.1,7.42-2.1q12,0,19,4.52t10.09,13.6q3.07,9.09,3.09,22.95Q936,532.22,933.18,541.63Z"/></svg>